PathFileType	4	(X/Y/Z)	/Users/niels/Desktop/University/Third Semester/Perception and Action/Exam/Gymnastics Motion Tracking/Code for Gym Tracking/Scripts/Analyzed Data/Start Salto/st_salto_bad_id11_2_Sports2D/st_salto_bad_id11_2_Sports2D_px_person00.trc
DataRate	CameraRate	NumFrames	NumMarkers	Units	OrigDataRate	OrigDataStartFrame	OrigNumFrames
29.83695652173913	29.83695652173913	9	22	m	29.83695652173913	46	184
Frame#	Time	Hip			RHip			RKnee			RAnkle			RBigToe			RSmallToe			RHeel			LHip			LKnee			LAnkle			LBigToe			LSmallToe			LHeel			Neck			Head			Nose			RShoulder			RElbow			RWrist			LShoulder			LElbow			LWrist		
		X1	Y1	Z1	X2	Y2	Z2	X3	Y3	Z3	X4	Y4	Z4	X5	Y5	Z5	X6	Y6	Z6	X7	Y7	Z7	X8	Y8	Z8	X9	Y9	Z9	X10	Y10	Z10	X11	Y11	Z11	X12	Y12	Z12	X13	Y13	Z13	X14	Y14	Z14	X15	Y15	Z15	X16	Y16	Z16	X17	Y17	Z17	X18	Y18	Z18	X19	Y19	Z19	X20	Y20	Z20	X21	Y21	Z21	X22	Y22	Z22
46	1.5417122040072861	0.1035905018431989	-0.49372869039471984	0.0	0.08117877433990253	-0.49664186928014176	0.0	0.15110436972399635	-0.6261555683170807	0.0	0.06916360873212966	-0.7379863842950014	0.0	0.09449375259615293	-0.7916204528777174	0.0	0.07668988766579407	-0.788323724994752	0.0	0.049560657878228144	-0.7469670146974806	0.0	0.12963952090585512	-0.49258856810863394	0.0	0.19861041385446107	-0.6000451246716302	0.0	0.20262728504988783	-0.7334182391409667	0.0	0.25417627750913185	-0.7605954338084017	0.0	0.250906490633959	-0.7563640374178274	0.0	0.19175335293279813	-0.7509118034272916	0.0	0.14051822561310012	-0.3171033104337921	0.0	0.15984382912346887	-0.23803905345097315	0.0	0.1857789645666381	-0.285242615594448	0.0	0.1188043202467297	-0.3304732355139547	0.0	0.12705265214963354	-0.3968893244441085	0.0	0.14552471387155472	-0.42031212988228295	0.0	0.15701572114338175	-0.3431298797774839	0.0	0.2091644343022407	-0.387740255829705	0.0	0.2715740757585087	-0.39894154800350623	0.0
47	1.5752276867030968	0.11264689496034455	-0.49435249398833364	0.0	0.09115798605726222	-0.4972156440271139	0.0	0.16393548991746232	-0.6245193595252023	0.0	0.08941806570949788	-0.7423067063237355	0.0	0.11787552560241174	-0.7939308774852483	0.0	0.10092111592184483	-0.7916250884478901	0.0	0.06997658178018201	-0.7522755588003323	0.0	0.13890314974233192	-0.4933914067987326	0.0	0.20740767272933602	-0.6022715942500416	0.0	0.21488973348512652	-0.7352998243170177	0.0	0.26778688499991987	-0.7614074619712803	0.0	0.26392114884800666	-0.7572742193335859	0.0	0.20484755654756065	-0.753211427225787	0.0	0.15333673873941173	-0.31857496070997615	0.0	0.17297977375482107	-0.23991476091869413	0.0	0.19859521740757582	-0.2858990258513554	0.0	0.13075674346298663	-0.3308746369250961	0.0	0.14283995953369097	-0.3936325774175514	0.0	0.1636693221825697	-0.4205828757949864	0.0	0.17069471427190197	-0.34501656404261044	0.0	0.22541302221466467	-0.3878785539924782	0.0	0.2886187354665754	-0.39767408533365844	0.0
48	1.6087431693989074	0.12157300918230818	-0.4950245098157987	0.0	0.10094573139466666	-0.49778792616614087	0.0	0.17637253721060173	-0.6231835262646922	0.0	0.10946113023692611	-0.7466176305282652	0.0	0.14166183278334493	-0.7961012093469069	0.0	0.12516472136422802	-0.7948666656896965	0.0	0.09048836362390286	-0.7574828368976144	0.0	0.1480443022259616	-0.49440584463702114	0.0	0.21618340526905058	-0.6046783591970215	0.0	0.22712011806048216	-0.7375378398685409	0.0	0.28148833724083566	-0.7623203075706245	0.0	0.27701153397018397	-0.7581680456809506	0.0	0.2178706118003044	-0.7557524398743919	0.0	0.16614524772122832	-0.32025643314410734	0.0	0.18572219768343062	-0.24183423248237113	0.0	0.21117933807551303	-0.2869304942822931	0.0	0.1426860019429483	-0.3318210439174976	0.0	0.15802423966400342	-0.39150898950745133	0.0	0.1821169885385743	-0.4201369556717584	0.0	0.18447283601396555	-0.34719906774340814	0.0	0.2411270340632049	-0.3879360456427538	0.0	0.30535699741286626	-0.3964261415995462	0.0
49	1.6422586520947178	0.13055553535991118	-0.4958133738448575	0.0	0.11079520650820888	-0.4985327426391751	0.0	0.18864389855657882	-0.6222478254375895	0.0	0.1293473174676588	-0.7509763875763646	0.0	0.16603223662050354	-0.7981286607003224	0.0	0.14941091600935053	-0.7979943517687901	0.0	0.11100772554562705	-0.7626379099102261	0.0	0.15720306621346689	-0.49562160193210963	0.0	0.22502151048972271	-0.6071949357759937	0.0	0.23940252732238376	-0.7402933428688437	0.0	0.29515561239124377	-0.763316563807438	0.0	0.2901840057498835	-0.7590518453888756	0.0	0.2309476245580161	-0.7586024858886763	0.0	0.1789464328770692	-0.3221358671506094	0.0	0.198269808124183	-0.24405143999265086	0.0	0.2236625651263157	-0.28863834641377306	0.0	0.15480187534286105	-0.3333246198427919	0.0	0.17274546743534422	-0.390374571696817	0.0	0.20133563812631375	-0.41890741112899715	0.0	0.19825444330712144	-0.349626380788433	0.0	0.2564190091286993	-0.3877577372350081	0.0	0.3220043422815228	-0.39509836863923115	0.0
50	1.6757741347905284	0.13977083794036732	-0.49677374133438934	0.0	0.1208880989592894	-0.4995800383956691	0.0	0.20090950217572384	-0.6218438036444894	0.0	0.14944443665624457	-0.7554604239228185	0.0	0.1910812282704699	-0.7999835947791751	0.0	0.1738926494057139	-0.8009214193164399	0.0	0.13193586443209396	-0.7678121223318508	0.0	0.16648697800793716	-0.49701534506519873	0.0	0.23411273910767902	-0.6097944986895347	0.0	0.25184774879375466	-0.7434385086994173	0.0	0.3086565780284852	-0.7642201244219736	0.0	0.30337312472441613	-0.7598505549720954	0.0	0.24425346863672479	-0.761662722461293	0.0	0.19175554206910528	-0.3242703215699417	0.0	0.21095611292962005	-0.24668134101114012	0.0	0.23627452248851397	-0.29117826356363824	0.0	0.16728629760065444	-0.3352638575581767	0.0	0.18740210967467857	-0.3899401263211227	0.0	0.22173339296506006	-0.41717649431278575	0.0	0.21195885967649225	-0.35216297891750487	0.0	0.27153218822894354	-0.387339209251702	0.0	0.3388259029420124	-0.39365819058050283	0.0
51	1.709289617486339	0.1492139811947536	-0.497936586920389	0.0	0.13113526102534384	-0.5009464549282722	0.0	0.21302109005727055	-0.6220727324395299	0.0	0.16987063628765603	-0.7600324893124019	0.0	0.21630378245060936	-0.8015836053287783	0.0	0.19844383572835528	-0.8034539651331232	0.0	0.15344951323804507	-0.7729622389129095	0.0	0.1758093879004024	-0.4985531467672517	0.0	0.24348668087340058	-0.6124635540815034	0.0	0.26442547793492527	-0.7466243040098451	0.0	0.32175038493503855	-0.764771657057685	0.0	0.3163219874563239	-0.7604147543761097	0.0	0.25780147257319874	-0.7646921437211592	0.0	0.20438261145394462	-0.3267423273545649	0.0	0.22386283383959327	-0.24962931579761638	0.0	0.24905231087883142	-0.29446537657952937	0.0	0.1800466163521849	-0.33750039674252136	0.0	0.20228352746456527	-0.3899733749161743	0.0	0.24325389238272296	-0.4153765627732944	0.0	0.22539513714540266	-0.3546206593861187	0.0	0.2865080334740558	-0.386835815577396	0.0	0.35572930505806866	-0.3921917754526757	0.0
52	1.7428051001821496	0.15881637396746445	-0.4993291144251177	0.0	0.14135154237337597	-0.5025205658445556	0.0	0.2247046964009793	-0.6229537682620638	0.0	0.19042689694260653	-0.7644758735031996	0.0	0.24100590273565686	-0.8027058399717574	0.0	0.22272253624879812	-0.8053047290653692	0.0	0.17530517878150664	-0.777922644622794	0.0	0.18505708876139404	-0.5001798518948295	0.0	0.25298889999377694	-0.6151751811125372	0.0	0.27697433304675506	-0.7495217308466233	0.0	0.3342396661607642	-0.7648315099671462	0.0	0.3287717666771504	-0.7606328899619729	0.0	0.2714398336021213	-0.7674903971687386	0.0	0.21660487229348396	-0.3296230706297029	0.0	0.23684560240908314	-0.2526987961532656	0.0	0.2618582436477864	-0.29822769631745144	0.0	0.19280107029823249	-0.340014388877661	0.0	0.21747569737434186	-0.39036832173066455	0.0	0.2654172800532147	-0.4137222105692135	0.0	0.2384133106903629	-0.3568699271983533	0.0	0.3012373661450284	-0.3864753706625864	0.0	0.3723140222678428	-0.39084113588948544	0.0
53	1.77632058287796	0.16853149885812607	-0.5009876831366593	0.0	0.15143444571615097	-0.5041715900627961	0.0	0.23582161956017567	-0.6244348068821238	0.0	0.21083724207557622	-0.7684923033435562	0.0	0.264755523627098	-0.8030593461972136	0.0	0.24651256241178363	-0.8062269340997565	0.0	0.1970752257059772	-0.7825144469441088	0.0	0.1942356850899278	-0.5018530733449356	0.0	0.2624258266123807	-0.6179169042042224	0.0	0.2892791171352216	-0.7519968340616379	0.0	0.34612817205530083	-0.7644776348746509	0.0	0.3406515097051148	-0.7605252728021795	0.0	0.2849187527303819	-0.7700450765483019	0.0	0.22839427860633255	-0.33290790038820517	0.0	0.24972078467431644	-0.25574378891698935	0.0	0.2745432979215588	-0.3021356500779033	0.0	0.20533298687583657	-0.34290743274314733	0.0	0.2329447773033428	-0.39111192046947557	0.0	0.2875565770796084	-0.41208530077991534	0.0	0.2509783906164232	-0.3588901431455843	0.0	0.315586782182719	-0.38645047746248007	0.0	0.3880893666159709	-0.3896922565985407	0.0
54	1.8098360655737706	0.17826052773382997	-0.5029481653037648	0.0	0.16135440631987893	-0.5058614251718175	0.0	0.24638456637965164	-0.6264828386685712	0.0	0.230886594132556	-0.7718804637260073	0.0	0.2873389066394492	-0.80249196320996	0.0	0.2696039266272818	-0.8061674908511379	0.0	0.2183966747305445	-0.7866160791460854	0.0	0.20336157553352216	-0.5035989892555132	0.0	0.2716774574643854	-0.6207188012466784	0.0	0.301116219008378	-0.7541146442563533	0.0	0.3575315381641818	-0.7639840538579545	0.0	0.3520049733693852	-0.7603015982407405	0.0	0.2979092833246028	-0.772474267959589	0.0	0.23987244980781697	-0.33650601890541637	0.0	0.26237034230374046	-0.2587541508368633	0.0	0.28700859172283355	-0.305959732680157	0.0	0.21761947767345394	-0.34626331400982147	0.0	0.24854753017872136	-0.3921653280231429	0.0	0.30905027894114956	-0.4102375582264994	0.0	0.26301531734025363	-0.360739853819024	0.0	0.32930137439348933	-0.3868368017110313	0.0	0.4025284824250438	-0.38873565816126254	0.0
